PathFileType	4	(X/Y/Z)	/Users/visionmauri/1_7_1_f_Sports2D/1_7_1_f_Sports2D_m_person00.trc
DataRate	CameraRate	NumFrames	NumMarkers	Units	OrigDataRate	OrigDataStartFrame	OrigNumFrames
30.0	30.0	10	22	m	30.0	340	389
Frame#	Time	Hip			RHip			RKnee			RAnkle			RBigToe			RSmallToe			RHeel			LHip			LKnee			LAnkle			LBigToe			LSmallToe			LHeel			Neck			Head			Nose			RShoulder			RElbow			RWrist			LShoulder			LElbow			LWrist			
		X1	Y1	Z1	X2	Y2	Z2	X3	Y3	Z3	X4	Y4	Z4	X5	Y5	Z5	X6	Y6	Z6	X7	Y7	Z7	X8	Y8	Z8	X9	Y9	Z9	X10	Y10	Z10	X11	Y11	Z11	X12	Y12	Z12	X13	Y13	Z13	X14	Y14	Z14	X15	Y15	Z15	X16	Y16	Z16	X17	Y17	Z17	X18	Y18	Z18	X19	Y19	Z19	X20	Y20	Z20	X21	Y21	Z21	X22	Y22	Z22
340	11.362542955326461	2.0772481203793043	0.6783429766549047	0.0301	1.9482874123652285	0.7433548476297192	0.0301	1.629102733563363	0.39722108085225877	0.129	1.3470749149758026	0.03586724920059228	0.023	1.2004064352096109	-0.0780227760951826	0.2179	1.1667550733808094	-0.006049317349366719	0.1804	1.3226715804918536	-0.032540073844037475	-0.0119	2.139613068532622	0.5586859430580005	0.0301	1.8098169240519417	0.23829726654755215	0.129	1.4009219215722464	-0.11435397249528122	0.023	1.2457018241054585	-0.21934442844917845	0.2179	1.301470087694779	-0.2647124495133168	0.1804	1.3399289927083415	-0.1519596619565183	-0.0119	2.582431218190194	1.178174998400316	0.0008	2.7672106508141	1.3772696898633003	0.0655	2.573726715391284	1.184203894316183	0.1076	2.3586296998515346	1.2962211644148953	-0.01275	2.08510289235224	1.129541837391449	0.0702	1.8076084510959967	0.9977293918977844	0.1076	2.723307364358143	0.9775183823946488	-0.01275	2.5219090037656304	0.6541384732065836	0.0702	2.5437272854074218	0.6833526839691504	0.1076
341	11.395962199312715	2.0761825292463145	0.6774575761100352	0.0301	1.947442179436876	0.7435368607172217	0.0301	1.6262817706145134	0.3939768289994231	0.129	1.345113468570197	0.03460900483177199	0.023	1.2003987283845	-0.07931112568100908	0.2179	1.1674102436484994	-0.008268037150267221	0.1804	1.3206758882743652	-0.034002113151323406	-0.0119	2.141363370018069	0.559064147915626	0.0301	1.8146447912608807	0.24515570628975258	0.129	1.4000580607564463	-0.10765324271370151	0.023	1.2477513333995953	-0.2177469979837363	0.2179	1.3023949435419702	-0.2606819690247014	0.1804	1.3379732402819933	-0.14719336090506405	-0.0119	2.5818356656379593	1.1786927895730923	0.0008	2.768229833884731	1.3779987188072338	0.0655	2.5752153613878326	1.1847995474394784	0.1076	2.3590524635070005	1.2979623294968272	-0.01275	2.0835634485954886	1.126863301896105	0.0702	1.804746835808984	0.9989621527621204	0.1076	2.7260000884696787	0.975965868276514	-0.01275	2.5262703069725188	0.6594857579579996	0.0702	2.543298931766677	0.6740231975901427	0.1076
342	11.429381443298968	2.0754671996080325	0.6775594070778375	0.0301	1.9483649076808205	0.7450593695276799	0.0301	1.6242138025222776	0.3898085743961531	0.129	1.3431754607420916	0.033069269130284344	0.023	1.2003270199205325	-0.08007455273020016	0.2179	1.168768370110374	-0.011439432765703814	0.1804	1.318436676861927	-0.03535058039927815	-0.0119	2.1443364502478457	0.5598074735683141	0.0301	1.829485239493329	0.2554121715942555	0.129	1.4004412883539192	-0.1032959710054503	0.023	1.2482106938193511	-0.217596086771732	0.2179	1.3009512246562571	-0.2572441257355623	0.1804	1.3382776041542583	-0.14475685752308043	-0.0119	2.580752272907605	1.1786367077354907	0.0008	2.76968064462845	1.3771809935207522	0.0655	2.578536371336397	1.1861290602249688	0.1076	2.3588354153171234	1.2984717478499699	-0.01275	2.0818669431315917	1.124446114172913	0.0702	1.8039237110144883	1.0014663444893583	0.1076	2.730624719380938	0.9757222261100488	-0.01275	2.5347452160598176	0.6667164569950697	0.0702	2.546179295612805	0.667030918088261	0.1076
343	11.462800687285224	2.074174156457947	0.6785765481608593	0.0301	1.9489637474914219	0.7458048531705953	0.0301	1.623981754599563	0.3878878114652911	0.129	1.3407492720336198	0.03116251355253598	0.023	1.2001448753557042	-0.08040247366732788	0.2179	1.1700781735301171	-0.013893412785699676	0.1804	1.3162003859920488	-0.03668567891655261	-0.0119	2.1460937851084765	0.5604983463063221	0.0301	1.8413925512685385	0.26199244856999476	0.129	1.4003055320373226	-0.10008133720032115	0.023	1.2474808887681081	-0.21844361868190096	0.2179	1.296804020545154	-0.2544236598605386	0.1804	1.336975237602934	-0.14361983683194496	-0.0119	2.5811636386731456	1.1777280894825513	0.0008	2.7721556104267715	1.3746818061928958	0.0655	2.5831519523475954	1.185006562182189	0.1076	2.3601295082586953	1.2978796673949056	-0.01275	2.0816011790789433	1.1237644477341864	0.0702	1.8068569235186627	1.0057841261187621	0.1076	2.7351660718965043	0.9751803908871773	-0.01275	2.5408854837302846	0.6681242653599183	0.0702	2.5464700625210743	0.6624646445249488	0.1076
344	11.496219931271478	2.0711726346096397	0.6788808382730402	0.0301	1.9470733339598096	0.7435053666034143	0.0301	1.6248634700429618	0.38787611266635996	0.129	1.339145350705956	0.030438478104140788	0.023	1.1998952376482401	-0.0802618966814296	0.2179	1.1708207117914142	-0.014160962882132446	0.1804	1.3151971624022418	-0.03916603203118294	-0.0119	2.1441848124095904	0.5582083458218943	0.0301	1.8414038763522824	0.26011933565816747	0.129	1.3977942758987278	-0.09843690272401774	0.023	1.2424150185512361	-0.2196181538041793	0.2179	1.290981447557803	-0.25400231628583664	0.1804	1.3342491445220577	-0.1420018911690149	-0.0119	2.583693085450147	1.1754440108693818	0.0008	2.7748809714969793	1.3696141077686994	0.0655	2.5868811069059925	1.1810127214838266	0.1076	2.3632260703566903	1.2956732651367755	-0.01275	2.081752856702666	1.1241489309741028	0.0702	1.8111039943974887	1.0101508166291409	0.1076	2.737314899114644	0.9726924490371489	-0.01275	2.539630639918301	0.6594151459562773	0.0702	2.5423177063264473	0.6556420455093479	0.1076
345	11.529639175257731	2.0671652174754733	0.676705420919768	0.0301	1.9437823058253565	0.7391173453593226	0.0301	1.6254191316969864	0.3877406818544635	0.129	1.3397998495284713	0.030885041207689163	0.023	1.1986464949834672	-0.08030785732442697	0.2179	1.1702627025686525	-0.012430068934854011	0.1804	1.31770188856775	-0.04351864226617604	-0.0119	2.139224737367328	0.5517376712914681	0.0301	1.83257669434021	0.25234110152157774	0.129	1.3895183999042326	-0.09998881303495587	0.023	1.2297913365966737	-0.22078025453209799	0.2179	1.2823788237224685	-0.2569573640785965	0.1804	1.3292117872698777	-0.14097153268070245	-0.0119	2.586895757478899	1.1721532107955208	0.0008	2.778642602205031	1.3636640879324402	0.0655	2.589200501258955	1.1768449988472902	0.1076	2.3672029471944995	1.2927334082768986	-0.01275	2.081023196779063	1.1247428716452725	0.0702	1.811628443593103	1.0119999262402517	0.1076	2.7371671748626913	0.9685893910767256	-0.01275	2.533019680702631	0.644480389401167	0.0702	2.538591288598218	0.6467835999814868	0.1076
346	11.563058419243985	2.063968592466779	0.6726849900850266	0.0301	1.9396758221217758	0.7346390141092003	0.0301	1.6237425869997382	0.38673193318588994	0.129	1.3423824792624865	0.02985519752636871	0.023	1.1950422209943956	-0.08244413166389872	0.2179	1.167379982397369	-0.011225885315049837	0.1804	1.3236087256620301	-0.048286130712039514	-0.0119	2.1327939191589835	0.5437426750291908	0.0301	1.8196258453546597	0.24318692392218227	0.129	1.372743296868823	-0.1061687469909086	0.023	1.2101011675142406	-0.22429706434062854	0.2179	1.267410954597445	-0.26389314858756463	0.1804	1.315446705592468	-0.14418883833522578	-0.0119	2.5911270057397866	1.1699983162590848	0.0008	2.7827456159601245	1.3578082602104338	0.0655	2.59049326460555	1.1744124298374836	0.1076	2.371571076928983	1.2912689933271193	-0.01275	2.080147203765423	1.1255285670253632	0.0702	1.807329855235614	1.012006618221255	0.1076	2.737352230338685	0.9643185857497494	-0.01275	2.5295041361078283	0.6343708561918792	0.0702	2.54042936127705	0.641808207225459	0.1076
347	11.59647766323024	2.0611531099452924	0.6682428783256609	0.0301	1.9330723690954008	0.7305964829781557	0.0301	1.6195052891371786	0.3847761690972956	0.129	1.3451965454818637	0.026801906669576877	0.023	1.189202125307031	-0.08760732786150997	0.2179	1.1621303735907944	-0.012450496384331468	0.1804	1.3295486950525262	-0.05112026897149155	-0.0119	2.1246193714479493	0.5362348832776359	0.0301	1.8007702811266502	0.23468671273529837	0.129	1.348597229978479	-0.11858223091361768	0.023	1.185306168386938	-0.23391471922269874	0.2179	1.244733789307011	-0.2764331726816659	0.1804	1.2884341607887349	-0.15529848204544885	-0.0119	2.5984581818908636	1.1695946234597272	0.0008	2.785412480335642	1.35066276331406	0.0655	2.5901292812054884	1.1728098424802271	0.1076	2.3752574037511565	1.2916676889001206	-0.01275	2.0799077191504245	1.126146292414899	0.0702	1.801357729373237	1.013084368023863	0.1076	2.739543496961528	0.9602706185735034	-0.01275	2.5332768411292843	0.6342903813677393	0.0702	2.5471582404131285	0.6432572859512338	0.1076
348	11.629896907216494	2.056785987599513	0.6635634285513171	0.0301	1.9245759175605592	0.7271624548138294	0.0301	1.6159684631653366	0.3822206805908839	0.129	1.3472226669598832	0.024291724146477435	0.023	1.1832201104894784	-0.0964578516434248	0.2179	1.1559108916725318	-0.016863986903687192	0.1804	1.3324075863196982	-0.05231707186151727	-0.0119	2.1150112582445284	0.529541365673805	0.0301	1.776951911139874	0.22863376883975525	0.129	1.3237215690638076	-0.132440274287036	0.023	1.1593180334733597	-0.24552098055127403	0.2179	1.2197750780607013	-0.289988792515931	0.1804	1.2565601563151656	-0.1687917000586687	-0.0119	2.6077984087330868	1.1685896741422501	0.0008	2.787795463787895	1.3427971651928792	0.0655	2.5891752784013367	1.170331143308947	0.1076	2.3768502552021	1.292085223126416	-0.01275	2.0796173529471402	1.125948012880721	0.0702	1.7969168140343086	1.015618648881236	0.1076	2.742296813324538	0.9547727547961334	-0.01275	2.5390601078975497	0.6366575259568203	0.0702	2.5525063233470062	0.6442479606567486	0.1076
349	11.663316151202748	2.0515606516666467	0.6593011546541193	0.0301	1.9178490940058481	0.7248036649631728	0.0301	1.6157254545030737	0.3797494601050805	0.129	1.3482552748583871	0.02147030153876616	0.023	1.1792514156761562	-0.11168943834005302	0.2179	1.1498724836355392	-0.027580685838068976	0.1804	1.3307430609725541	-0.05465596289362687	-0.0119	2.1067775651911496	0.5250279138661412	0.0301	1.7587329713722535	0.22758543119111918	0.129	1.3068290333480783	-0.13696746209077648	0.023	1.1397657146646383	-0.2489489111205966	0.2179	1.2010012883908217	-0.29470709924777466	0.1804	1.235635655738356	-0.17078080862724937	-0.0119	2.615487082583472	1.1648081022805796	0.0008	2.791609903355924	1.3367675785324136	0.0655	2.590700281074553	1.1666006486720943	0.1076	2.378060558438493	1.2906586579914108	-0.01275	2.078728308894372	1.125012506429483	0.0702	1.7948189594933557	1.0176934883344053	0.1076	2.7442452489949574	0.946146593118688	-0.01275	2.5411912364745244	0.6339401073671438	0.0702	2.5500585371316644	0.6348494513955187	0.1076
